<svg width="660" height="58" viewBox="0 0 660 58" fill="none" xmlns="http://www.w3.org/2000/svg">
<path d="M11.1197 57.6C9.09302 57.6 7.22635 57.0933 5.51969 56.08C3.86635 55.0666 2.53302 53.7333 1.51969 52.08C0.506354 50.3733 -0.000312388 48.5066 -0.000312388 46.48V-2.67029e-05H10.5597V46C10.5597 46.2666 10.6397 46.5066 10.7997 46.72C11.013 46.88 11.253 46.96 11.5197 46.96H45.9197C46.1864 46.96 46.4264 46.88 46.6397 46.72C46.853 46.5066 46.9597 46.2666 46.9597 46V-2.67029e-05H57.5997V46.48C57.5997 48.5066 57.093 50.3733 56.0797 52.08C55.0664 53.7333 53.7064 55.0666 51.9997 56.08C50.3464 57.0933 48.5064 57.6 46.4797 57.6H11.1197ZM64.4097 57.6V-2.67029e-05H76.0097L96.8897 24.88L117.69 -2.67029e-05H129.37V57.6H118.73V15.36L96.8897 41.36L74.9697 15.44V57.6H64.4097ZM147.748 57.6C145.722 57.6 143.855 57.0933 142.148 56.08C140.495 55.0666 139.162 53.7333 138.148 52.08C137.135 50.3733 136.628 48.5066 136.628 46.48V11.12C136.628 9.09331 137.135 7.25331 138.148 5.59997C139.162 3.89331 140.495 2.53331 142.148 1.51997C143.855 0.50664 145.722 -2.67029e-05 147.748 -2.67029e-05H194.068V10.64H149.988C149.135 10.64 148.442 10.88 147.908 11.36C147.428 11.84 147.188 12.5333 147.188 13.44V44.16C147.188 45.0133 147.428 45.7066 147.908 46.24C148.442 46.72 149.135 46.96 149.988 46.96H194.068V57.6H147.748ZM222.863 57.6V0.0799723H269.263C271.289 0.0799723 273.156 0.586639 274.863 1.59997C276.569 2.6133 277.929 3.9733 278.943 5.67997C279.956 7.33331 280.463 9.17331 280.463 11.2V26.72C280.463 28.7466 279.956 30.6133 278.943 32.32C277.929 34.0266 276.569 35.3866 274.863 36.4C273.156 37.36 271.289 37.84 269.263 37.84L233.423 37.92V57.6H222.863ZM234.383 27.2H268.783C269.049 27.2 269.289 27.12 269.503 26.96C269.716 26.8 269.823 26.5866 269.823 26.32V11.6C269.823 11.3333 269.716 11.12 269.503 10.96C269.289 10.7466 269.049 10.64 268.783 10.64H234.383C234.116 10.64 233.876 10.7466 233.663 10.96C233.503 11.12 233.423 11.3333 233.423 11.6V26.32C233.423 26.5866 233.503 26.8 233.663 26.96C233.876 27.12 234.116 27.2 234.383 27.2ZM330.064 57.6L312.704 36.88H326.544L341.584 54.64V57.6H330.064ZM284.144 57.6V0.0799723H330.544C332.571 0.0799723 334.437 0.586639 336.144 1.59997C337.851 2.6133 339.211 3.9733 340.224 5.67997C341.237 7.33331 341.744 9.17331 341.744 11.2V26.72C341.744 28.7466 341.237 30.6133 340.224 32.32C339.211 34.0266 337.851 35.3866 336.144 36.4C334.437 37.36 332.571 37.84 330.544 37.84L294.704 37.92V57.6H284.144ZM295.664 27.2H330.064C330.331 27.2 330.571 27.12 330.784 26.96C330.997 26.8 331.104 26.5866 331.104 26.32V11.6C331.104 11.3333 330.997 11.12 330.784 10.96C330.571 10.7466 330.331 10.64 330.064 10.64H295.664C295.397 10.64 295.157 10.7466 294.944 10.96C294.784 11.12 294.704 11.3333 294.704 11.6V26.32C294.704 26.5866 294.784 26.8 294.944 26.96C295.157 27.12 295.397 27.2 295.664 27.2ZM359.12 57.6C357.093 57.6 355.226 57.0933 353.52 56.08C351.866 55.0666 350.533 53.7333 349.52 52.08C348.506 50.3733 348 48.5066 348 46.48V11.12C348 9.09331 348.506 7.25331 349.52 5.59997C350.533 3.89331 351.866 2.53331 353.52 1.51997C355.226 0.50664 357.093 -2.67029e-05 359.12 -2.67029e-05H394.48C396.506 -2.67029e-05 398.346 0.50664 400 1.51997C401.706 2.53331 403.066 3.89331 404.08 5.59997C405.093 7.25331 405.6 9.09331 405.6 11.12V46.48C405.6 48.5066 405.093 50.3733 404.08 52.08C403.066 53.7333 401.706 55.0666 400 56.08C398.346 57.0933 396.506 57.6 394.48 57.6H359.12ZM359.52 46.96H393.92C394.186 46.96 394.426 46.88 394.64 46.72C394.853 46.5066 394.96 46.2666 394.96 46V11.6C394.96 11.3333 394.853 11.12 394.64 10.96C394.426 10.7466 394.186 10.64 393.92 10.64H359.52C359.253 10.64 359.013 10.7466 358.8 10.96C358.64 11.12 358.56 11.3333 358.56 11.6V46C358.56 46.2666 358.64 46.5066 358.8 46.72C359.013 46.88 359.253 46.96 359.52 46.96ZM412.57 57.6V-2.67029e-05H458.97C460.996 -2.67029e-05 462.863 0.50664 464.57 1.51997C466.276 2.53331 467.636 3.89331 468.65 5.59997C469.663 7.25331 470.17 9.09331 470.17 11.12V46.48C470.17 48.5066 469.663 50.3733 468.65 52.08C467.636 53.7333 466.276 55.0666 464.57 56.08C462.863 57.0933 460.996 57.6 458.97 57.6H412.57ZM424.01 46.96H458.49C458.756 46.96 458.996 46.88 459.21 46.72C459.423 46.5066 459.53 46.2666 459.53 46V11.6C459.53 11.3333 459.423 11.12 459.21 10.96C458.996 10.7466 458.756 10.64 458.49 10.64H424.01C423.743 10.64 423.503 10.7466 423.29 10.96C423.13 11.12 423.05 11.3333 423.05 11.6V46C423.05 46.2666 423.13 46.5066 423.29 46.72C423.503 46.88 423.743 46.96 424.01 46.96ZM488.088 57.6C486.062 57.6 484.195 57.0933 482.488 56.08C480.835 55.0666 479.502 53.7333 478.488 52.08C477.475 50.3733 476.968 48.5066 476.968 46.48V-2.67029e-05H487.528V46C487.528 46.2666 487.608 46.5066 487.768 46.72C487.982 46.88 488.222 46.96 488.488 46.96H522.888C523.155 46.96 523.395 46.88 523.608 46.72C523.822 46.5066 523.928 46.2666 523.928 46V-2.67029e-05H534.568V46.48C534.568 48.5066 534.062 50.3733 533.048 52.08C532.035 53.7333 530.675 55.0666 528.968 56.08C527.315 57.0933 525.475 57.6 523.448 57.6H488.088ZM552.498 57.6C550.472 57.6 548.605 57.0933 546.898 56.08C545.245 55.0666 543.912 53.7333 542.898 52.08C541.885 50.3733 541.378 48.5066 541.378 46.48V11.12C541.378 9.09331 541.885 7.25331 542.898 5.59997C543.912 3.89331 545.245 2.53331 546.898 1.51997C548.605 0.50664 550.472 -2.67029e-05 552.498 -2.67029e-05H598.818V10.64H554.738C553.885 10.64 553.192 10.88 552.658 11.36C552.178 11.84 551.938 12.5333 551.938 13.44V44.16C551.938 45.0133 552.178 45.7066 552.658 46.24C553.192 46.72 553.885 46.96 554.738 46.96H598.818V57.6H552.498ZM625.8 57.6V10.64H602.28V-2.67029e-05H659.88V10.64H636.44V57.6H625.8Z" fill="currentColor"/>
</svg>
